<svg xmlns="http://www.w3.org/2000/svg" viewBox="0 0 64 64">
  <defs>
    <linearGradient id="g" x1="0" y1="0" x2="1" y2="1">
      <stop offset="0" stop-color="#f5e6c8"/>
      <stop offset="1" stop-color="#d4a373"/>
    </linearGradient>
  </defs>
  <rect width="64" height="64" rx="12" fill="#faf6ef"/>
  <!-- Minimal home + leaf mark -->
  <g transform="translate(8,10)">
    <path d="M24 2 L40 14 L40 38 A4 4 0 0 1 36 42 L12 42 A4 4 0 0 1 8 38 L8 14 Z" fill="url(#g)"/>
    <path d="M24 6 L36 16 L36 36 A2 2 0 0 1 34 38 L14 38 A2 2 0 0 1 12 36 L12 16 Z" fill="#fff"/>
    <!-- Leaf -->
    <path d="M8 28 C 14 20, 26 18, 30 26 C 22 26, 16 30, 8 28 Z" fill="#ca8a04" opacity="0.9"/>
  </g>
</svg>
